<svg width="30" height="36" viewBox="0 0 30 36" fill="none" xmlns="http://www.w3.org/2000/svg">
<path d="M8.18693 31.9459C8.18778 32.3881 8.34631 32.8212 8.64375 33.1897L10.1003 34.996C10.3491 35.3047 10.6866 35.558 11.0827 35.7332C11.4788 35.9083 11.9213 36 12.3707 36H17.6301C18.0796 36 18.522 35.9083 18.9181 35.7332C19.3143 35.558 19.6518 35.3047 19.9006 34.996L21.3571 33.1897C21.6544 32.8212 21.8133 32.3885 21.8139 31.9459L21.8173 29.2494H8.18267L8.18693 31.9459ZM0 12.3748C0 15.4945 1.40199 18.3407 3.7125 20.5154C5.12045 21.8408 7.32273 24.6096 8.16222 26.9453C8.16562 26.9636 8.16818 26.9819 8.17159 27.0002H21.8284C21.8318 26.9819 21.8344 26.9643 21.8378 26.9453C22.6773 24.6096 24.8795 21.8408 26.2875 20.5154C28.598 18.3407 30 15.4945 30 12.3748C30 5.52721 23.2594 -0.0210334 14.9531 5.99456e-05C6.25909 0.0218564 0 5.83376 0 12.3748ZM15 6.74992C11.2406 6.74992 8.18182 9.27338 8.18182 12.3748C8.18182 12.9963 7.57159 13.4998 6.81818 13.4998C6.06477 13.4998 5.45455 12.9963 5.45455 12.3748C5.45455 8.03239 9.73636 4.49996 15 4.49996C15.7534 4.49996 16.3636 5.00339 16.3636 5.62494C16.3636 6.24649 15.7534 6.74992 15 6.74992Z" fill="black"/>
</svg>
