<svg width="64" height="47" viewBox="0 0 64 47" fill="none" xmlns="http://www.w3.org/2000/svg">
<path d="M54.4 0H9.6C4.29807 0 0 3.14118 0 7.01602V39.7574C0 43.6323 4.29807 46.7734 9.6 46.7734H54.4C59.7019 46.7734 64 43.6323 64 39.7574V7.01602C64 3.14118 59.7019 0 54.4 0Z" fill="#1877F2"/>
<path d="M44.45 30.1469L45.875 23.3867H37V19.0017C37 17.1564 38.2375 15.3475 42.2125 15.3475H46.25V9.59221C46.25 9.59221 42.5875 9.13544 39.0875 9.13544C31.775 9.13544 27 12.3694 27 18.2343V23.3867H18.875V30.1469H27V46.7734H37V30.1469H44.45Z" fill="white"/>
</svg>
