<svg width="65" height="53" viewBox="0 0 65 53" fill="none" xmlns="http://www.w3.org/2000/svg">
<path d="M20.4412 52.8138C44.9707 52.8138 58.3836 32.491 58.3836 14.8714C58.3836 14.2947 58.3836 13.718 58.3476 13.1465C60.9573 11.2581 63.21 8.92 65 6.24181C62.5672 7.32085 59.9864 8.02898 57.3435 8.34257C60.1263 6.67439 62.2085 4.0524 63.203 0.964161C60.5848 2.51836 57.7203 3.61368 54.733 4.20283C52.7226 2.06516 50.0637 0.649676 47.1678 0.175444C44.2719 -0.298788 41.3003 0.194669 38.7131 1.57945C36.1259 2.96423 34.0672 5.16313 32.8556 7.83585C31.644 10.5086 31.3471 13.5061 32.0108 16.3646C26.7088 16.099 21.5218 14.7212 16.7867 12.3209C12.0516 9.92052 7.87431 6.55118 4.5259 2.4316C2.81884 5.36656 2.29457 8.8418 3.05985 12.1497C3.82514 15.4577 5.82242 18.3496 8.64504 20.2366C6.53741 20.1653 4.4773 19.5916 2.63625 18.5632V18.7331C2.63588 21.8086 3.69811 24.7897 5.64315 27.172C7.5882 29.5543 10.2966 31.1914 13.31 31.8062C11.3456 32.3413 9.28472 32.4188 7.28572 32.0328C8.13681 34.6841 9.79556 37.0029 12.0298 38.6648C14.2641 40.3266 16.9621 41.2483 19.7461 41.3008C15.0194 45.0025 9.18571 47.0081 3.18203 46.9955C2.11864 46.9961 1.05613 46.9342 0 46.8102C6.09771 50.7269 13.1939 52.8057 20.4412 52.7984" fill="#1DA1F2"/>
</svg>
