<svg width="33" height="31" viewBox="0 0 33 31" fill="none" xmlns="http://www.w3.org/2000/svg">
<path d="M16.4747 13.8536L27.7316 0.682755C28.5096 -0.227585 29.7678 -0.227585 30.5375 0.682755L32.4082 2.87145C33.1862 3.78179 33.1862 5.25383 32.4082 6.15448L24.4373 15.5L32.4165 24.8358C33.1945 25.7462 33.1945 27.2182 32.4165 28.1189L30.5458 30.3172C29.7678 31.2276 28.5096 31.2276 27.7399 30.3172L16.4829 17.1464C15.6966 16.236 15.6966 14.764 16.4747 13.8536ZM0.582509 17.1464L11.8394 30.3172C12.6175 31.2276 13.8756 31.2276 14.6454 30.3172L16.516 28.1286C17.2941 27.2182 17.2941 25.7462 16.516 24.8455L8.54514 15.5L16.5243 6.16417C17.3024 5.25383 17.3024 3.78179 16.5243 2.88113L14.6537 0.682755C13.8756 -0.227585 12.6175 -0.227585 11.8477 0.682755L0.590786 13.8536C-0.195544 14.764 -0.195544 16.236 0.582509 17.1464Z" fill="black"/>
</svg>
