<svg width="39" height="38" viewBox="0 0 39 38" fill="none" xmlns="http://www.w3.org/2000/svg">
<path d="M37.6071 32.5714H1.39286C1.02345 32.5714 0.66917 32.7144 0.407958 32.9689C0.146747 33.2234 0 33.5686 0 33.9286L0 36.6429C0 37.0028 0.146747 37.348 0.407958 37.6025C0.66917 37.857 1.02345 38 1.39286 38H37.6071C37.9766 38 38.3308 37.857 38.592 37.6025C38.8533 37.348 39 37.0028 39 36.6429V33.9286C39 33.5686 38.8533 33.2234 38.592 32.9689C38.3308 32.7144 37.9766 32.5714 37.6071 32.5714ZM37.6071 21.7143H1.39286C1.02345 21.7143 0.66917 21.8573 0.407958 22.1118C0.146747 22.3663 0 22.7115 0 23.0714L0 25.7857C0 26.1457 0.146747 26.4908 0.407958 26.7454C0.66917 26.9999 1.02345 27.1429 1.39286 27.1429H37.6071C37.9766 27.1429 38.3308 26.9999 38.592 26.7454C38.8533 26.4908 39 26.1457 39 25.7857V23.0714C39 22.7115 38.8533 22.3663 38.592 22.1118C38.3308 21.8573 37.9766 21.7143 37.6071 21.7143ZM37.6071 10.8571H1.39286C1.02345 10.8571 0.66917 11.0001 0.407958 11.2546C0.146747 11.5092 0 11.8543 0 12.2143L0 14.9286C0 15.2885 0.146747 15.6337 0.407958 15.8882C0.66917 16.1427 1.02345 16.2857 1.39286 16.2857H37.6071C37.9766 16.2857 38.3308 16.1427 38.592 15.8882C38.8533 15.6337 39 15.2885 39 14.9286V12.2143C39 11.8543 38.8533 11.5092 38.592 11.2546C38.3308 11.0001 37.9766 10.8571 37.6071 10.8571ZM37.6071 0H1.39286C1.02345 0 0.66917 0.142984 0.407958 0.397498C0.146747 0.652012 0 0.997206 0 1.35714L0 4.07143C0 4.43137 0.146747 4.77656 0.407958 5.03107C0.66917 5.28559 1.02345 5.42857 1.39286 5.42857H37.6071C37.9766 5.42857 38.3308 5.28559 38.592 5.03107C38.8533 4.77656 39 4.43137 39 4.07143V1.35714C39 0.997206 38.8533 0.652012 38.592 0.397498C38.3308 0.142984 37.9766 0 37.6071 0Z" fill="black"/>
</svg>
