<svg width="27" height="23" viewBox="0 0 27 23" fill="none" xmlns="http://www.w3.org/2000/svg">
<path d="M25.3125 9.72337H5.29875L11.4244 2.65919C11.7108 2.32832 11.8486 1.90174 11.8075 1.47332C11.7663 1.04489 11.5496 0.649695 11.205 0.37468C10.8604 0.0996659 10.4161 -0.0326446 9.96987 0.00685598C9.52365 0.0463566 9.11205 0.254433 8.82562 0.585309L0.388125 10.3066C0.331358 10.384 0.280596 10.4652 0.23625 10.5497C0.23625 10.6307 0.23625 10.6793 0.118125 10.7603C0.0416368 10.9461 0.00158814 11.1438 0 11.3436C0.00158814 11.5433 0.0416368 11.7411 0.118125 11.9269C0.118125 12.0079 0.118125 12.0565 0.23625 12.1375C0.280596 12.222 0.331358 12.3032 0.388125 12.3805L8.82562 22.1019C8.98428 22.2848 9.18297 22.4318 9.40755 22.5327C9.63212 22.6335 9.87708 22.6855 10.125 22.6852C10.5193 22.6859 10.9014 22.554 11.205 22.3125C11.3759 22.1765 11.5171 22.0094 11.6206 21.8209C11.7242 21.6324 11.788 21.4262 11.8083 21.2139C11.8287 21.0017 11.8053 20.7877 11.7394 20.5842C11.6735 20.3807 11.5665 20.1917 11.4244 20.028L5.29875 12.9638H25.3125C25.76 12.9638 26.1893 12.7931 26.5057 12.4893C26.8222 12.1854 27 11.7733 27 11.3436C27 10.9139 26.8222 10.5018 26.5057 10.1979C26.1893 9.89407 25.76 9.72337 25.3125 9.72337Z" fill="#231F20"/>
</svg>
