<svg width="30" height="37" viewBox="0 0 30 37" fill="none" xmlns="http://www.w3.org/2000/svg">
<path d="M0 33.5312C0 35.4463 1.43973 37 3.21429 37H26.7857C28.5603 37 30 35.4463 30 33.5312V13.875H0V33.5312ZM21.4286 19.3672C21.4286 18.8902 21.7902 18.5 22.2321 18.5H24.9107C25.3527 18.5 25.7143 18.8902 25.7143 19.3672V22.2578C25.7143 22.7348 25.3527 23.125 24.9107 23.125H22.2321C21.7902 23.125 21.4286 22.7348 21.4286 22.2578V19.3672ZM21.4286 28.6172C21.4286 28.1402 21.7902 27.75 22.2321 27.75H24.9107C25.3527 27.75 25.7143 28.1402 25.7143 28.6172V31.5078C25.7143 31.9848 25.3527 32.375 24.9107 32.375H22.2321C21.7902 32.375 21.4286 31.9848 21.4286 31.5078V28.6172ZM12.8571 19.3672C12.8571 18.8902 13.2188 18.5 13.6607 18.5H16.3393C16.7812 18.5 17.1429 18.8902 17.1429 19.3672V22.2578C17.1429 22.7348 16.7812 23.125 16.3393 23.125H13.6607C13.2188 23.125 12.8571 22.7348 12.8571 22.2578V19.3672ZM12.8571 28.6172C12.8571 28.1402 13.2188 27.75 13.6607 27.75H16.3393C16.7812 27.75 17.1429 28.1402 17.1429 28.6172V31.5078C17.1429 31.9848 16.7812 32.375 16.3393 32.375H13.6607C13.2188 32.375 12.8571 31.9848 12.8571 31.5078V28.6172ZM4.28571 19.3672C4.28571 18.8902 4.64732 18.5 5.08929 18.5H7.76786C8.20982 18.5 8.57143 18.8902 8.57143 19.3672V22.2578C8.57143 22.7348 8.20982 23.125 7.76786 23.125H5.08929C4.64732 23.125 4.28571 22.7348 4.28571 22.2578V19.3672ZM4.28571 28.6172C4.28571 28.1402 4.64732 27.75 5.08929 27.75H7.76786C8.20982 27.75 8.57143 28.1402 8.57143 28.6172V31.5078C8.57143 31.9848 8.20982 32.375 7.76786 32.375H5.08929C4.64732 32.375 4.28571 31.9848 4.28571 31.5078V28.6172ZM26.7857 4.625H23.5714V1.15625C23.5714 0.520312 23.0893 0 22.5 0H20.3571C19.7679 0 19.2857 0.520312 19.2857 1.15625V4.625H10.7143V1.15625C10.7143 0.520312 10.2321 0 9.64286 0H7.5C6.91071 0 6.42857 0.520312 6.42857 1.15625V4.625H3.21429C1.43973 4.625 0 6.17871 0 8.09375V11.5625H30V8.09375C30 6.17871 28.5603 4.625 26.7857 4.625Z" fill="black"/>
</svg>
