<svg width="199" height="189" viewBox="0 0 199 189" fill="none" xmlns="http://www.w3.org/2000/svg">
<path d="M71.0049 20.5637C71.0049 20.5637 47.7818 22.9209 40.8729 28.327C33.964 33.7331 28.2066 50.9525 28.2066 50.9525L1.95623 123.488L1.95291 123.501L1.95623 123.404L1.95291 123.417C19.916 120.147 34.0407 129.29 34.0407 129.29V129.374L56.3827 67.4377L58.2778 127.998L42.964 172.786C49.5759 179.09 60.251 177.118 60.251 177.118V184.226C99.4083 189.592 127.902 186.215 143.678 182.961" stroke="white" stroke-width="3.90384" stroke-miterlimit="10" stroke-linecap="round" stroke-linejoin="round"/>
<path d="M128.72 20.5637C128.72 20.5637 151.218 23.8445 158.127 29.2506C165.036 34.6567 170.793 51.8761 170.793 51.8761L197.044 124.412L197.047 124.425C179.084 121.155 164.959 130.298 164.959 130.298L142.617 68.3616L140.722 128.922L157.897 179.153" stroke="white" stroke-width="3.90384" stroke-miterlimit="10" stroke-linecap="round" stroke-linejoin="round"/>
<path d="M99.8508 35.3041C89.936 19.6419 81.6696 10.2098 79.7237 7.69276C79.7237 7.69276 75.5017 1.95285 83.2548 1.95285H99.8361H99.8623H116.444C124.197 1.95285 119.975 7.69276 119.975 7.69276C115.746 13.1629 81.6663 51.2907 65.6908 115.048" stroke="white" stroke-width="3.90384" stroke-miterlimit="10" stroke-linecap="round" stroke-linejoin="round"/>
<path d="M80.786 115.936C95.9716 58.8948 124.904 25.7848 128.72 20.5636L120.927 3.67927" stroke="white" stroke-width="3.90384" stroke-miterlimit="10" stroke-linecap="round" stroke-linejoin="round"/>
<path d="M91.3008 49.7905C81.4382 33.1301 72.9519 23.205 71.0049 20.5409" stroke="white" stroke-width="3.90384" stroke-miterlimit="10" stroke-linecap="round" stroke-linejoin="round"/>
<path d="M71.0049 20.5637L78.7974 3.67902" stroke="white" stroke-width="3.90384" stroke-miterlimit="10" stroke-linecap="round" stroke-linejoin="round"/>
<path d="M141.183 114.211C104.731 117.138 75.5857 116.494 57.8463 114.215" stroke="white" stroke-width="3.90384" stroke-miterlimit="10" stroke-linecap="round" stroke-linejoin="round"/>
<path d="M140.771 127.359C104.767 130.231 75.976 129.612 58.2586 127.383" stroke="white" stroke-width="3.90384" stroke-miterlimit="10" stroke-linecap="round" stroke-linejoin="round"/>
</svg>
