<svg width="40" height="43" viewBox="0 0 40 43" fill="none" xmlns="http://www.w3.org/2000/svg">
<path d="M19.4697 11.1553L6.66719 25.7318V41.4641C6.66719 41.8714 6.78425 42.2621 6.9926 42.5501C7.20096 42.8382 7.48356 43 7.77822 43L15.5596 42.9722C15.8533 42.9701 16.1344 42.8074 16.3416 42.5196C16.5487 42.2318 16.665 41.8423 16.665 41.4363V32.2488C16.665 31.8415 16.7821 31.4508 16.9904 31.1628C17.1988 30.8747 17.4814 30.7129 17.7761 30.7129H22.2202C22.5148 30.7129 22.7974 30.8747 23.0058 31.1628C23.2141 31.4508 23.3312 31.8415 23.3312 32.2488V41.4295C23.3307 41.6316 23.3591 41.8319 23.4148 42.0188C23.4704 42.2057 23.5522 42.3756 23.6554 42.5187C23.7586 42.6618 23.8812 42.7754 24.0162 42.8529C24.1513 42.9304 24.296 42.9702 24.4422 42.9702L32.2208 43C32.5154 43 32.798 42.8382 33.0064 42.5501C33.2147 42.2621 33.3318 41.8714 33.3318 41.4641V25.7213L20.5321 11.1553C20.3816 10.9877 20.1942 10.8962 20.0009 10.8962C19.8076 10.8962 19.6202 10.9877 19.4697 11.1553ZM39.6924 21.0627L33.8873 14.4479V1.15191C33.8873 0.846407 33.7995 0.553414 33.6433 0.337388C33.487 0.121362 33.275 0 33.054 0H29.1655C28.9445 0 28.7325 0.121362 28.5762 0.337388C28.42 0.553414 28.3322 0.846407 28.3322 1.15191V8.12195L22.1153 1.05112C21.5187 0.372432 20.7701 0.00135671 19.9974 0.00135671C19.2248 0.00135671 18.4761 0.372432 17.8795 1.05112L0.302406 21.0627C0.218029 21.1592 0.14822 21.2776 0.0969688 21.4113C0.0457172 21.545 0.0140272 21.6914 0.00370954 21.8421C-0.00660814 21.9927 0.00464871 22.1447 0.0368369 22.2893C0.0690251 22.434 0.121514 22.5684 0.191304 22.685L1.962 25.6608C2.0316 25.7778 2.11721 25.8747 2.21392 25.9459C2.31064 26.0171 2.41656 26.0612 2.52563 26.0757C2.6347 26.0903 2.74477 26.0749 2.84954 26.0306C2.95432 25.9862 3.05173 25.9137 3.13622 25.8173L19.4697 7.21962C19.6202 7.05195 19.8076 6.96051 20.0009 6.96051C20.1942 6.96051 20.3816 7.05195 20.5321 7.21962L36.8663 25.8173C36.9506 25.9138 37.0479 25.9863 37.1525 26.0308C37.2571 26.0753 37.3671 26.0909 37.476 26.0766C37.585 26.0623 37.6909 26.0185 37.7876 25.9477C37.8844 25.8768 37.97 25.7803 38.0398 25.6637L39.8105 22.6879C39.8802 22.5706 39.9325 22.4355 39.9643 22.2902C39.9961 22.145 40.0068 21.9924 39.9958 21.8414C39.9849 21.6904 39.9524 21.5438 39.9003 21.4102C39.8483 21.2766 39.7776 21.1585 39.6924 21.0627Z" fill="black"/>
</svg>
