<svg width="52" height="34" viewBox="0 0 52 34" fill="none" xmlns="http://www.w3.org/2000/svg">
<path fill-rule="evenodd" clip-rule="evenodd" d="M12.9672 0L15.5378 7.2143L0.125694 6.39687C0.0810616 6.39687 0.0446321 6.3097 0 6.3123L12.9672 0Z" fill="#FBB713"/>
<path fill-rule="evenodd" clip-rule="evenodd" d="M52 6.56582H36.5527L39.0657 0L52 6.56582Z" fill="#FBB713"/>
<path fill-rule="evenodd" clip-rule="evenodd" d="M36.4951 7.2143H15.5378L12.9672 0H39.0657L36.4951 7.2143Z" fill="#FBB713"/>
<path opacity="0.2" fill-rule="evenodd" clip-rule="evenodd" d="M36.4951 7.2143H15.5378L12.9672 0H39.0657L36.4951 7.2143Z" fill="black"/>
<path fill-rule="evenodd" clip-rule="evenodd" d="M36.5528 6.56586L26.2075 33.6587L15.5737 6.39691L36.5528 6.56586Z" fill="#FBB713"/>
<path fill-rule="evenodd" clip-rule="evenodd" d="M15.5737 6.39691L26.2075 33.6587L0.12569 6.39691H15.5737Z" fill="#FBB713"/>
<path opacity="0.35" fill-rule="evenodd" clip-rule="evenodd" d="M15.5737 6.39691L26.2075 33.6587L0.12569 6.39691H15.5737Z" fill="black"/>
<path fill-rule="evenodd" clip-rule="evenodd" d="M36.5527 6.56583H52L26.2075 33.6586L36.5527 6.56583Z" fill="#FBB713"/>
<path opacity="0.1" fill-rule="evenodd" clip-rule="evenodd" d="M36.5527 6.56583H52L26.2075 33.6586L36.5527 6.56583Z" fill="black"/>
</svg>
